# AST/ASF file generated using VICON BodyLanguage
# -----------------------------------------------
:version 1.10
:name VICON
:units
  mass 1.0
  length 0.45
  angle deg
:documentation
   .ast/.asf automatically generated from VICON data using
   VICON BodyBuilder and BodyLanguage model FoxedUp or BRILLIANT.MOD
:root
   order TX TY TZ RX RY RZ
   axis XYZ
   position 0 0 0  
   orientation 0 0 0 
:bonedata
  begin
     id 1 
     name lhipjoint
     direction 0.711131 -0.61297 0.344326 
     length 2.29162 
     axis 0 0 0  XYZ
  end
  begin
     id 2 
     name lfemur
     direction 0.34202 -0.939693 0  
     length 6.71424  
     axis 0 0 20  XYZ
    dof rx ry rz
    limits (-160.0 20.0)
           (-70.0 70.0)
           (-60.0 70.0)
  end
  begin
     id 3 
     name ltibia
     direction 0.34202 -0.939693 0   
     length 6.7087   
     axis 0 0 20   XYZ
    dof rx
    limits (-10.0 170.0)
  end
  begin
     id 4 
     name lfoot
     direction 0.0230374 -0.0632947 0.997729   
     length 1.56743   
     axis -90 7.62852e-016 20   XYZ
    dof rx rz
    limits (-45.0 90.0)
           (-70.0 20.0)
  end
  begin
     id 5 
     name ltoes
     direction 1.53585e-011 -4.21885e-011 1   
     length 0.802914   
     axis -90 7.62852e-016 20   XYZ
    dof rx
    limits (-90.0 20.0)
  end
  begin
     id 6 
     name rhipjoint
     direction -0.733192 -0.592884 0.333043   
     length 2.36925  
     axis 0 0 0  XYZ 
  end
  begin
     id 7 
     name rfemur
     direction -0.34202 -0.939693 0   
     length 6.67027   
     axis 0 0 -20   XYZ
    dof rx ry rz
    limits (-160.0 20.0)
           (-70.0 70.0)
           (-70.0 60.0)
  end
  begin
     id 8 
     name rtibia
     direction -0.34202 -0.939693 0   
     length 6.6862   
     axis 0 0 -20   XYZ
    dof rx
    limits (-10.0 170.0)
 end
 begin
     id 9 
     name rfoot
     direction -0.0949739 -0.260939 0.960672   
     length 1.67698  
     axis -90 -7.62852e-016 -20   XYZ
    dof rx rz
    limits (-45.0 90.0)
           (-20.0 70.0)
  end
  begin
     id 10 
     name rtoes
     direction -1.5353e-011 -4.21868e-011 1   
     length 0.846298   
     axis -90 -7.62852e-016 -20   XYZ
    dof rx
    limits (-90.0 20.0)
  end
  begin
     id 11 
     name lowerback
     direction -0.0206828 0.999785 -0.00109866   
     length 2.04382   
     axis 0 0 0   XYZ
    dof rx ry rz
    limits (-20.0 45.0)
           (-30.0 30.0)
           (-30.0 30.0)
  end
  begin
     id 12 
     name upperback
     direction -0.0105003 0.999727 -0.0208904   
     length 2.04538   
     axis 0 0 0   XYZ
    dof rx ry rz
    limits (-20.0 45.0)
           (-30.0 30.0)
           (-30.0 30.0)
  end
  begin
     id 13 
     name thorax
     direction -0.000416255 0.999808 -0.0196023   
     length 2.0399   
     axis 0 0 0   XYZ
    dof rx ry rz
    limits (-20.0 45.0)
           (-30.0 30.0)
           (-30.0 30.0)
  end
  begin
     id 14 
     name lowerneck
     direction 0.0627861 0.989205 0.13241   
     length 1.46207   
     axis 0 0 0   XYZ
    dof rx ry rz
    limits (-20.0 45.0)
           (-30.0 30.0)
           (-30.0 30.0)
  end
  begin
     id 15 
     name upperneck
     direction 0.00627179 0.994526 0.104303   
     length 1.41419   
     axis 0 0 0   XYZ
    dof rx ry rz
    limits (-20.0 45.0)
           (-30.0 30.0)
           (-30.0 30.0)
  end
  begin
     id 16
     name head
     direction -0.00443838 0.999688 0.0245968  
     length 1.50718  
     axis 0 0 0   XYZ
    dof rx ry rz
    limits (-20.0 45.0)
           (-30.0 30.0)
           (-30.0 30.0)
  end
  begin
     id 17 
     name lclavicle
     direction 0.758742 0.650995 -0.0227258  
     length 2.86888  
     axis 0 0 0   XYZ
    dof ry rz
    limits (-20.0 10.0)
           (0.0 20.0)
  end
  begin
     id 18 
     name lhumerus
     direction 1 -4.48962e-011 1.06664e-027   
     length 4.65776   
     axis -180 -30 -90   XYZ
    dof rx ry rz
    limits (-60.0 90.0)
           (-90.0 90.0)
           (-90.0 90.0)
  end
  begin
     id 19
     name lradius
     direction 1 -4.48968e-011 1.40404e-026   
     length 3.55539   
     axis -180 -30 -90   XYZ
    dof rx
    limits (-10.0 170.0)
  end
  begin
     id 20
     name lwrist
     direction 1 -4.48976e-011 3.32647e-026   
     length 1.77769   
     axis -2.20186e-014 90 90   XYZ
    dof ry
    limits (-180.0 0.0)
 end
  begin
     id 21 
     name lhand
     direction 1 -4.48982e-011 6.65293e-026   
     length 0.707264   
     axis -4.24514e-014 90 90   XYZ
    dof rx rz
    limits (-90.0 90.0)
           (-45.0 45.0)
  end
  begin
     id 22 
     name lfingers
     direction 1 -4.48966e-011 1.33059e-025   
     length 0.570215   
     axis -8.49028e-014 90 90   XYZ
    dof rx
    limits (0.0 90.0)
  end
  begin
     id 23
     name lthumb
     direction 0.707107 -6.3493e-011 0.707107   
     length 0.818718   
     axis -90 45 2.85299e-015   XYZ
    dof rx rz
    limits (-45.0 45.0)
           (-45.0 45.0)
  end
  begin
     id 24 
     name rclavicle
     direction -0.870343 0.482028 -0.100759   
     length 3.2251  
     axis 0 0 0   XYZ 
    dof ry rz
    limits (-10.0 20.0)
           (-20.0 0.0)
  end
  begin
     id 25 
     name rhumerus
     direction -1 -4.48974e-011 -9.45849e-028  
     length 4.71925   
     axis -180 30 90   XYZ
    dof rx ry rz
    limits (-90.0 60.0)
           (-90.0 90.0)
           (-90.0 90.0)
  end
  begin
     id 26 
     name rradius
     direction -1 -4.48965e-011 1.17607e-026   
     length 3.5699   
     axis -180 30 90   XYZ
    dof rx
    limits (-10.0 170.0)
  end
  begin
     id 27 
     name rwrist
     direction -1 -4.48968e-011 3.32647e-026   
     length 1.78495   
     axis -2.20186e-014 -90 -90   XYZ
    dof ry
    limits (-180.0 0.0)
  end
  begin
     id 28
     name rhand
     direction -1 -4.48995e-011 6.65293e-026   
     length 0.507757   
     axis -4.24514e-014 -90 -90   XYZ
    dof rx rz
    limits (-90.0 90.0)
           (-45.0 45.0)
  end
  begin
     id 29
     name rfingers
     direction -1 -4.48864e-011 1.33059e-025   
     length 0.409367   
     axis -8.49028e-014 -90 -90   XYZ
    dof rx
    limits (0.0 90.0)
  end
  begin
     id 30
     name rthumb
     direction -0.707107 -6.3494e-011 0.707107   
     length 0.587771   
     axis -90 -45 -2.85299e-015   XYZ
    dof rx rz
    limits (-45.0 45.0)
           (-45.0 45.0)
  end
:hierarchy
  begin
    root lhipjoint rhipjoint lowerback
    lhipjoint lfemur
    lfemur ltibia
    ltibia lfoot
    lfoot ltoes
    rhipjoint rfemur
    rfemur rtibia
    rtibia rfoot
    rfoot rtoes
    lowerback upperback
    upperback thorax
    thorax lowerneck lclavicle rclavicle
    lowerneck upperneck
    upperneck head
    lclavicle lhumerus
    lhumerus lradius
    lradius lwrist
    lwrist lhand lthumb
    lhand lfingers
    rclavicle rhumerus
    rhumerus rradius
    rradius rwrist
    rwrist rhand rthumb
    rhand rfingers
  end

#!OML:ASF E:\Steps\Project 1\Capture day 1\Session 2\Subject.ASF
:FULLY-SPECIFIED
:DEGREES
17
root -1.12213 19.6635 20.8265 -153.74 -2.10035 178.886
lowerback -25.9815 -2.4516 -6.45903
upperback -0.758843 -1.71479 -0.0339057
thorax 13.918 -1.38285 2.99799
lowerneck -2.17358 -9.16781 -2.74322
upperneck 24.4427 -11.2778 2.92709
head 8.25905 -4.63521 0.64626
rclavicle -1.17283e-014 5.1684e-015
rhumerus -38.5222 -13.6649 -77.8558
rradius 44.1801
rwrist -5.93963
rhand -5.63986 -62.6597
rfingers 7.12502
rthumb 20.1785 91.6317
lclavicle -1.17283e-014 5.1684e-015
lhumerus -32.6971 -2.18218 83.6068
lradius 39.8538
lwrist 7.57966
lhand -24.5474 -12.2726
lfingers 7.12502
lthumb 1.9487 17.6983
rfemur -25.8847 4.7983 20.5758
rtibia 8.79893
rfoot -18.6441 -0.235404
rtoes -9.88305
lfemur -25.2082 -7.45408 -22.2689
ltibia 8.17479
lfoot -6.91048 0.059641
ltoes -25.3611
18
root -1.124 19.666 20.8227 -153.883 -2.0994 178.835
lowerback -25.8766 -2.46432 -6.50829
upperback -0.699382 -1.71143 -0.0454302
thorax 13.932 -1.38189 3.01603
lowerneck -2.12939 -9.20412 -2.75256
upperneck 24.3754 -11.3457 2.99073
head 8.23511 -4.66721 0.665274
rclavicle 5.26779e-015 -2.0276e-014
rhumerus -38.4213 -13.542 -77.9455
rradius 44.3574
rwrist -5.94858
rhand -5.05369 -62.1181
rfingers 7.12502
rthumb 20.7418 91.0296
lclavicle 5.26779e-015 -2.0276e-014
lhumerus -32.5963 -2.38443 83.6988
lradius 40.2424
lwrist 7.4999
lhand -24.7245 -12.6419
lfingers 7.12502
lthumb 1.77767 17.3304
rfemur -25.6507 4.99612 20.4589
rtibia 8.69881
rfoot -18.1691 -0.4161
rtoes -11.3359
lfemur -25.0114 -7.55421 -22.3185
ltibia 8.14574
lfoot -6.91155 0.111919
ltoes -24.3566
19
root -1.12279 19.6679 20.8215 -153.915 -2.12351 178.847
lowerback -25.8314 -2.48653 -6.5205
upperback -0.682038 -1.73851 -0.0287162
thorax 13.9317 -1.39454 3.03305
lowerneck -2.17292 -9.27505 -2.6865
upperneck 24.4493 -11.4415 2.95451
head 8.26496 -4.70606 0.632065
rclavicle 1.27222e-014 -5.96354e-015
rhumerus -38.3435 -13.4617 -78.0516
rradius 44.5566
rwrist -5.80199
rhand -4.84258 -61.7847
rfingers 7.12502
rthumb 20.9447 90.6739
lclavicle 1.27222e-014 -5.96354e-015
lhumerus -32.5077 -2.50156 83.7629
lradius 40.6373
lwrist 7.32534
lhand -25.0045 -12.72
lfingers 7.12502
lthumb 1.50719 17.2544
rfemur -25.558 5.3648 20.4279
rtibia 8.61752
rfoot -18.1929 -0.790914
rtoes -11.4666
lfemur -25.0076 -7.41518 -22.3191
ltibia 8.24601
lfoot -6.98223 -0.0612463
ltoes -24.0632
20
root -1.12107 19.6669 20.8207 -153.873 -2.10252 178.868
lowerback -25.8472 -2.50785 -6.51135
upperback -0.698539 -1.77202 -0.0240397
thorax 13.9242 -1.40975 3.02027
lowerneck -2.20265 -9.33814 -2.59959
upperneck 24.5088 -11.529 2.91527
head 8.2855 -4.74033 0.596114
rclavicle 2.68359e-015 3.18055e-014
rhumerus -38.2983 -13.3608 -78.2017
rradius 44.7609
rwrist -5.72262
rhand -5.05413 -61.8305
rfingers 7.12502
rthumb 20.7414 90.7421
lclavicle 2.68359e-015 3.18055e-014
lhumerus -32.4189 -2.51598 83.7696
lradius 40.9711
lwrist 7.15938
lhand -24.9602 -12.6208
lfingers 7.12502
lthumb 1.54997 17.3533
rfemur -25.6114 5.49702 20.4513
rtibia 8.6098
rfoot -18.1292 -0.936127
rtoes -12.5416
lfemur -25.1079 -7.15413 -22.3354
ltibia 8.36082
lfoot -6.86936 -0.306915
ltoes -19.2272
21
root -1.12094 19.6652 20.82 -153.805 -2.05388 178.904
lowerback -25.8828 -2.47543 -6.43088
upperback -0.748252 -1.7549 -0.0664199
thorax 13.8784 -1.3959 2.93099
lowerneck -2.1137 -9.35649 -2.57775
upperneck 24.5253 -11.566 3.00389
head 8.28071 -4.74404 0.623034
rclavicle 1.08338e-014 0
rhumerus -38.3223 -13.2765 -78.3738
rradius 44.9532
rwrist -5.74943
rhand -4.92369 -62.6965
rfingers 7.12502
rthumb 20.8667 91.5942
lclavicle 1.08338e-014 0
lhumerus -32.3961 -2.76791 83.7811
lradius 41.261
lwrist 7.13991
lhand -24.9798 -12.5401
lfingers 7.12502
lthumb 1.53104 17.4342
rfemur -25.7081 5.5373 20.4776
rtibia 8.62219
rfoot -18.0416 -0.921379
rtoes -12.859
lfemur -25.199 -7.11487 -22.2808
ltibia 8.39066
lfoot -6.71918 -0.323163
ltoes -12.4215
22
root -1.12082 19.666 20.8211 -153.824 -2.02617 178.946
lowerback -25.8227 -2.45066 -6.37455
upperback -0.764746 -1.74337 -0.0783071
thorax 13.8221 -1.38504 2.89081
lowerneck -2.0523 -9.33303 -2.62016
upperneck 24.5418 -11.5401 3.09524
head 8.28307 -4.72383 0.664829
rclavicle -1.25234e-014 7.95139e-016
rhumerus -38.3484 -13.1989 -78.4725
rradius 45.168
rwrist -5.81872
rhand -4.73938 -63.1832
rfingers 7.12502
rthumb 21.0438 92.0614
lclavicle -1.25234e-014 7.95139e-016
lhumerus -32.4083 -3.20626 83.8568
lradius 41.5768
lwrist 7.30775
lhand -25.2678 -12.6092
lfingers 7.12502
lthumb 1.25292 17.3669
rfemur -25.7028 5.60039 20.5193
rtibia 8.63822
rfoot -18.0769 -0.972799
rtoes -12.7611
lfemur -25.1907 -7.22623 -22.1797
ltibia 8.41944
lfoot -7.26811 -0.311802
ltoes -20.4306
23
root -1.12104 19.667 20.8224 -153.828 -2.03605 178.96
lowerback -25.7492 -2.47521 -6.37785
upperback -0.785171 -1.78489 -0.0516797
thorax 13.7626 -1.40345 2.9098
lowerneck -2.04772 -9.31565 -2.63993
upperneck 24.5619 -11.5087 3.07981
head 8.28833 -4.71076 0.665633
rclavicle -7.65321e-015 3.97569e-015
rhumerus -38.3848 -13.1505 -78.4799
rradius 45.3429
rwrist -5.96305
rhand -4.82859 -62.7819
rfingers 7.12502
rthumb 20.9581 91.6696
lclavicle -7.65321e-015 3.97569e-015
lhumerus -32.4341 -3.49806 83.9512
lradius 41.9226
lwrist 7.50002
lhand -25.5484 -12.6212
lfingers 7.12502
lthumb 0.981945 17.3562
rfemur -25.7144 5.55661 20.5583
rtibia 8.65195
rfoot -18.0975 -0.980647
rtoes -13.2033
lfemur -25.2152 -7.39165 -22.1057
ltibia 8.50214
lfoot -6.73072 -0.18373
ltoes -10.1644
24
root -1.12177 19.6632 20.8199 -153.694 -1.98654 178.965
lowerback -25.8735 -2.48057 -6.39235
upperback -0.839228 -1.79143 -0.0451269
thorax 13.768 -1.41081 2.92073
lowerneck -2.0371 -9.32466 -2.59656
upperneck 24.6243 -11.506 3.02347
head 8.30131 -4.70576 0.640846
rclavicle 1.11319e-014 -3.18055e-015
rhumerus -38.4119 -13.1347 -78.4957
rradius 45.4083
rwrist -6.17083
rhand -4.63358 -62.9098
rfingers 7.12502
rthumb 21.1454 91.7767
lclavicle 1.11319e-014 -3.18055e-015
lhumerus -32.4225 -3.6101 83.9924
lradius 42.1498
lwrist 7.58819
lhand -25.5538 -12.5037
lfingers 7.12502
lthumb 0.976723 17.4738
rfemur -25.8855 5.46995 20.5912
rtibia 8.69672
rfoot -18.2579 -0.799722
rtoes -13.0729
lfemur -25.3596 -7.47569 -22.0581
ltibia 8.54997
lfoot -7.05698 -0.170809
ltoes -15.9565
25
root -1.12239 19.6649 20.8181 -153.74 -2.01364 178.959
lowerback -25.7948 -2.51212 -6.42877
upperback -0.837697 -1.82802 -0.0280524
thorax 13.7322 -1.42873 2.94945
lowerneck -1.98874 -9.31207 -2.59123
upperneck 24.6398 -11.4872 3.04805
head 8.2985 -4.69156 0.652112
rclavicle 7.65321e-015 -1.03368e-014
rhumerus -38.3108 -13.0529 -78.5405
rradius 45.346
rwrist -6.25601
rhand -4.42342 -63.1542
rfingers 7.12502
rthumb 21.3473 91.9983
lclavicle 7.65321e-015 -1.03368e-014
lhumerus -32.3506 -3.57681 83.9903
lradius 42.2251
lwrist 7.61362
lhand -25.3357 -12.4397
lfingers 7.12502
lthumb 1.18731 17.5368
rfemur -25.8251 5.36448 20.62
rtibia 8.69797
rfoot -18.3861 -0.76889
rtoes -13.0992
lfemur -25.3022 -7.59154 -22.0225
ltibia 8.53717
lfoot -7.3101 -0.164829
ltoes -20.9522
26
root -1.12222 19.6652 20.8195 -153.71 -1.987 179.012
lowerback -25.7906 -2.53897 -6.44017
upperback -0.839203 -1.867 0.0300036
thorax 13.7349 -1.44914 3.00864
lowerneck -1.99021 -9.31155 -2.62065
upperneck 24.6252 -11.4896 3.06104
head 8.29662 -4.69617 0.660618
rclavicle -2.26615e-014 1.98785e-014
rhumerus -38.0945 -12.9461 -78.5416
rradius 45.1769
rwrist -6.3347
rhand -4.41413 -62.9525
rfingers 7.12502
rthumb 21.3562 91.7957
lclavicle -2.26615e-014 1.98785e-014
lhumerus -32.3233 -3.43827 83.9936
lradius 42.3916
lwrist 7.71504
lhand -24.9082 -12.3456
lfingers 7.12502
lthumb 1.60021 17.6281
rfemur -25.8994 5.34025 20.6958
rtibia 8.7636
rfoot -18.3617 -0.794164
rtoes -13.4274
lfemur -25.3674 -7.53435 -21.9654
ltibia 8.56335
lfoot -7.28765 -0.119985
ltoes -20.9985
27
root -1.12278 19.6653 20.8206 -153.669 -1.97202 179.05
lowerback -25.8017 -2.57069 -6.43032
upperback -0.844964 -1.91599 0.0635585
thorax 13.7404 -1.47222 3.02311
lowerneck -2.0565 -9.30045 -2.59827
upperneck 24.6725 -11.4677 3.00824
head 8.31909 -4.68698 0.637932
rclavicle -1.87852e-014 -2.78299e-015
rhumerus -38.018 -12.9337 -78.5318
rradius 45.134
rwrist -6.40226
rhand -4.34036 -62.8127
rfingers 7.12502
rthumb 21.4271 91.6477
lclavicle -1.87852e-014 -2.78299e-015
lhumerus -32.2054 -3.18626 83.9703
lradius 42.1976
lwrist 7.21486
lhand -25.2801 -12.6981
lfingers 7.12502
lthumb 1.24107 17.278
rfemur -25.9517 5.55431 20.6702
rtibia 8.77722
rfoot -18.3666 -0.914237
rtoes -12.7316
lfemur -25.4575 -7.46052 -21.9419
ltibia 8.6301
lfoot -7.24356 -0.152663
ltoes -20.5543
